<?xml version="1.0" encoding="utf-8"?>
<!-- Generator: Adobe Illustrator 12.0.0, SVG Export Plug-In . SVG Version: 6.00 Build 51448)  -->
<!DOCTYPE svg PUBLIC "-//W3C//DTD SVG 1.1 Tiny//EN" "http://www.w3.org/Graphics/SVG/1.1/DTD/svg11-tiny.dtd" [
	<!ENTITY ns_svg "http://www.w3.org/2000/svg">
	<!ENTITY ns_xlink "http://www.w3.org/1999/xlink">
]>
<svg  version="1.1" baseProfile="tiny"
	 id="svg2" inkscape:version="0.48.1 " sodipodi:docname="icon.svg" inkscape:export-xdpi="90" inkscape:export-ydpi="90" xmlns:svg="http://www.w3.org/2000/svg" xmlns:rdf="http://www.w3.org/1999/02/22-rdf-syntax-ns#" xmlns:cc="http://creativecommons.org/ns#" xmlns:dc="http://purl.org/dc/elements/1.1/" xmlns:inkscape="http://www.inkscape.org/namespaces/inkscape" inkscape:export-filename="C:\myown\KeypadBuddy\gfx\my_keypad.png" xmlns:sodipodi="http://sodipodi.sourceforge.net/DTD/sodipodi-0.dtd"
	 xmlns="&ns_svg;" xmlns:xlink="&ns_xlink;" width="612" height="792" viewBox="0 0 612 792" xml:space="preserve">
<path id="rect3139" inkscape:export-xdpi="90" inkscape:export-ydpi="90" inkscape:export-filename="C:\myown\KeypadBuddy\gfx\rect3155.png" fill="#CCCCCC" d="
	M448.51,432.409h99.521c10.968,0,19.859,7.478,19.859,16.704v46.328c0,9.226-8.892,16.704-19.859,16.704H448.51
	c-10.97,0-19.859-7.479-19.859-16.704v-46.328C428.65,439.887,437.54,432.409,448.51,432.409z"/>
<path id="rect3115" inkscape:export-xdpi="90" inkscape:export-ydpi="90" inkscape:export-filename="C:\myown\KeypadBuddy\gfx\rect3155.png" fill="#F46E6E" d="
	M448.51,282.52h99.521c10.968,0,19.859,7.479,19.859,16.705v46.328c0,9.226-8.892,16.705-19.859,16.705H448.51
	c-10.97,0-19.859-7.479-19.859-16.705v-46.328C428.65,289.999,437.54,282.52,448.51,282.52z"/>
<path id="rect3113" inkscape:export-xdpi="90" inkscape:export-ydpi="90" inkscape:export-filename="C:\myown\KeypadBuddy\gfx\rect3155.png" fill="#CCCCCC" d="
	M255.712,282.52h99.521c10.968,0,19.858,7.479,19.858,16.705v46.328c0,9.226-8.891,16.705-19.858,16.705h-99.521
	c-10.968,0-19.859-7.479-19.859-16.705v-46.328C235.854,289.999,244.745,282.52,255.712,282.52z"/>
<path id="rect3111" inkscape:export-xdpi="90" inkscape:export-ydpi="90" inkscape:export-filename="C:\myown\KeypadBuddy\gfx\rect3155.png" fill="#F46E6E" d="
	M62.914,282.52h99.521c10.968,0,19.859,7.479,19.859,16.705v46.328c0,9.226-8.891,16.705-19.859,16.705H62.914
	c-10.967,0-19.858-7.479-19.858-16.705v-46.328C43.056,289.999,51.947,282.52,62.914,282.52z"/>
<sodipodi:namedview  id="base" inkscape:pageopacity="0.0" inkscape:current-layer="g4247" inkscape:window-width="1920" inkscape:window-height="1151" inkscape:window-x="-4" inkscape:window-y="-4" showgrid="false" bordercolor="#666666" fit-margin-left="0" fit-margin-top="0" fit-margin-right="0" borderopacity="1.0" fit-margin-bottom="0" inkscape:pageshadow="2" inkscape:zoom="1.5024999" inkscape:cx="103.47479" inkscape:document-units="px" inkscape:window-maximized="1" inkscape:cy="212.45395" pagecolor="#ffffff">
	</sodipodi:namedview>
<path id="rect4117" sodipodi:nodetypes="ssssccssssccsssss" inkscape:export-xdpi="90" inkscape:export-ydpi="90" inkscape:export-filename="C:\myown\KeypadBuddy\gfx\rect3155.png" inkscape:connector-curvature="0" fill="none" stroke="#AAAAAA" stroke-width="3.6553" d="
	M49.126,108.561c-16.189,0-29.233,10.972-29.233,24.59v374.361c0,13.62,13.043,24.592,29.233,24.592h114.405
	c25.468-0.104,45.398,19.511,45.398,40.67v87.139c0,13.615,13.043,24.588,29.233,24.588h130.813
	c16.19,0,29.234-10.973,29.234-24.588v-85.223c0-19.006,21.847-42.586,44.649-42.586h118.953c16.19,0,29.234-10.972,29.234-24.592
	V133.15c0-13.618-13.044-24.59-29.234-24.59H49.126z"/>
<path id="rect2999" inkscape:export-xdpi="90" inkscape:export-ydpi="90" inkscape:export-filename="C:\myown\KeypadBuddy\gfx\rect3155.png" fill="none" stroke="#B1B1B1" stroke-width="3.6553" d="
	M252.719,120.893h105.508c16.139,0,29.224,11.006,29.224,24.581v50.44c0,13.576-13.085,24.581-29.224,24.581H252.719
	c-16.14,0-29.223-11.005-29.223-24.581v-50.44C223.496,131.899,236.579,120.893,252.719,120.893z"/>
<path id="rect3005" inkscape:export-xdpi="90" inkscape:export-ydpi="90" inkscape:export-filename="C:\myown\KeypadBuddy\gfx\rect3155.png" fill="none" stroke="#B1B1B1" stroke-width="3.6553" d="
	M445.517,120.893h105.508c16.14,0,29.221,11.006,29.221,24.581v50.44c0,13.576-13.081,24.581-29.221,24.581H445.517
	c-16.14,0-29.224-11.005-29.224-24.581v-50.44C416.293,131.899,429.377,120.893,445.517,120.893z"/>
<path id="rect3007" inkscape:export-xdpi="90" inkscape:export-ydpi="90" inkscape:export-filename="C:\myown\KeypadBuddy\gfx\rect3155.png" fill="none" stroke="#B1B1B1" stroke-width="3.6553" d="
	M59.921,120.893h105.508c16.14,0,29.223,11.006,29.223,24.581v50.44c0,13.576-13.083,24.581-29.223,24.581H59.921
	c-16.139,0-29.224-11.005-29.224-24.581v-50.44C30.697,131.899,43.782,120.893,59.921,120.893z"/>
<path id="rect3065" inkscape:export-xdpi="90" inkscape:export-ydpi="90" inkscape:export-filename="C:\myown\KeypadBuddy\gfx\rect3155.png" inkscape:connector-curvature="0" fill="#CCCCCC" d="
	M62.936,130.79c-11.001,0-19.858,7.45-19.858,16.704v46.381c0,9.254,8.857,16.704,19.858,16.704h99.494
	c11.001,0,19.858-7.45,19.858-16.704v-46.381c0-9.254-8.857-16.704-19.858-16.704H62.936z M103.157,137.488h20.363l33.467,61.983
	h-26.008l-18.044-37.902l-18.043,37.902H68.783L103.157,137.488z"/>
<path id="rect3069" inkscape:export-xdpi="90" inkscape:export-ydpi="90" inkscape:export-filename="C:\myown\KeypadBuddy\gfx\rect3155.png" inkscape:connector-curvature="0" fill="#CCCCCC" d="
	M448.51,130.79c-10.999,0-19.856,7.45-19.856,16.704v46.381c0,9.254,8.857,16.704,19.856,16.704h99.495
	c11.001,0,19.856-7.45,19.856-16.704v-46.381c0-9.254-8.855-16.704-19.856-16.704H448.51z M494.68,137.488h20.362l33.366,61.983
	h-25.907l-18.043-37.986l-18.045,37.986h-26.106L494.68,137.488z"/>
<path id="rect3105" inkscape:export-xdpi="90" inkscape:export-ydpi="90" inkscape:export-filename="C:\myown\KeypadBuddy\gfx\rect3155.png" fill="none" stroke="#B1B1B1" stroke-width="3.6553" d="
	M252.719,272.587h105.508c16.139,0,29.224,11.006,29.224,24.582v50.439c0,13.576-13.085,24.581-29.224,24.581H252.719
	c-16.14,0-29.223-11.004-29.223-24.581v-50.439C223.496,283.593,236.579,272.587,252.719,272.587z"/>
<path id="rect3107" inkscape:export-xdpi="90" inkscape:export-ydpi="90" inkscape:export-filename="C:\myown\KeypadBuddy\gfx\rect3155.png" fill="none" stroke="#B1B1B1" stroke-width="3.6553" d="
	M445.517,272.587h105.508c16.14,0,29.221,11.006,29.221,24.582v50.439c0,13.576-13.081,24.581-29.221,24.581H445.517
	c-16.14,0-29.224-11.004-29.224-24.581v-50.439C416.293,283.593,429.377,272.587,445.517,272.587z"/>
<path id="rect3109" inkscape:export-xdpi="90" inkscape:export-ydpi="90" inkscape:export-filename="C:\myown\KeypadBuddy\gfx\rect3155.png" fill="none" stroke="#B1B1B1" stroke-width="3.6553" d="
	M59.921,272.587h105.508c16.14,0,29.223,11.006,29.223,24.582v50.439c0,13.576-13.083,24.581-29.223,24.581H59.921
	c-16.139,0-29.224-11.004-29.224-24.581v-50.439C30.697,283.593,43.782,272.587,59.921,272.587z"/>
<path id="rect3129" inkscape:export-xdpi="90" inkscape:export-ydpi="90" inkscape:export-filename="C:\myown\KeypadBuddy\gfx\rect3155.png" fill="none" stroke="#B1B1B1" stroke-width="3.6553" d="
	M252.719,422.475h105.508c16.139,0,29.224,11.007,29.224,24.584v50.438c0,13.576-13.085,24.58-29.224,24.58H252.719
	c-16.14,0-29.223-11.004-29.223-24.58v-50.438C223.496,433.481,236.579,422.475,252.719,422.475z"/>
<path id="rect3131" inkscape:export-xdpi="90" inkscape:export-ydpi="90" inkscape:export-filename="C:\myown\KeypadBuddy\gfx\rect3155.png" fill="none" stroke="#B1B1B1" stroke-width="3.6553" d="
	M445.517,422.475h105.508c16.14,0,29.221,11.007,29.221,24.584v50.438c0,13.576-13.081,24.58-29.221,24.58H445.517
	c-16.14,0-29.224-11.004-29.224-24.58v-50.438C416.293,433.481,429.377,422.475,445.517,422.475z"/>
<path id="rect3133" inkscape:export-xdpi="90" inkscape:export-ydpi="90" inkscape:export-filename="C:\myown\KeypadBuddy\gfx\rect3155.png" fill="none" stroke="#B1B1B1" stroke-width="3.6553" d="
	M59.921,422.475h105.508c16.14,0,29.223,11.007,29.223,24.584v50.438c0,13.576-13.083,24.58-29.223,24.58H59.921
	c-16.139,0-29.224-11.004-29.224-24.58v-50.438C30.697,433.481,43.782,422.475,59.921,422.475z"/>
<path id="rect3135" inkscape:export-xdpi="90" inkscape:export-ydpi="90" inkscape:export-filename="C:\myown\KeypadBuddy\gfx\rect3155.png" fill="#CCCCCC" d="
	M62.914,432.409h99.521c10.968,0,19.859,7.478,19.859,16.704v46.328c0,9.226-8.891,16.704-19.859,16.704H62.914
	c-10.967,0-19.858-7.479-19.858-16.704v-46.328C43.056,439.887,51.947,432.409,62.914,432.409z"/>
<path id="rect3137" inkscape:export-xdpi="90" inkscape:export-ydpi="90" inkscape:export-filename="C:\myown\KeypadBuddy\gfx\rect3155.png" fill="#4198EF" d="
	M255.712,432.409h99.521c10.968,0,19.858,7.478,19.858,16.704v46.328c0,9.226-8.891,16.704-19.858,16.704h-99.521
	c-10.968,0-19.859-7.479-19.859-16.704v-46.328C235.854,439.887,244.745,432.409,255.712,432.409z"/>
<path id="rect3153" inkscape:export-xdpi="90" inkscape:export-ydpi="90" inkscape:export-filename="C:\myown\KeypadBuddy\gfx\rect3155.png" fill="none" stroke="#B1B1B1" stroke-width="3.6553" d="
	M252.719,572.364h105.508c16.139,0,29.224,11.006,29.224,24.582v50.438c0,13.576-13.085,24.582-29.224,24.582H252.719
	c-16.14,0-29.223-11.006-29.223-24.582v-50.438C223.496,583.37,236.579,572.364,252.719,572.364z"/>
<path id="rect3155" inkscape:export-xdpi="90" inkscape:export-ydpi="90" inkscape:connector-curvature="0" fill="#CCCCCC" d="
	M255.673,582.306c-11.002,0-19.857,7.45-19.857,16.704v46.296c0,9.256,8.855,16.705,19.857,16.705h99.594
	c11.003,0,19.859-7.449,19.859-16.705V599.01c0-9.254-8.856-16.704-19.859-16.704H255.673L255.673,582.306z M246.398,607.488
	c7.291,3.598,12.843,6.158,16.734,7.633c3.891,1.474,8.429,2.81,13.508,4.069c5.079,1.261,9.847,2.187,14.415,2.8
	c4.566,0.608,9.318,0.928,14.112,0.932c9.751,0.008,18.911-1.024,27.619-3.223c8.709-2.198,19.336-6.295,31.754-12.209v12.381
	c-8.814,6.522-18.247,11.572-28.123,15.176c-9.878,3.604-19.881,5.437-30.04,5.428c-8.563-0.01-17.73-1.461-27.521-4.326
	c-10.977-3.254-21.771-8.572-32.459-16.024V607.49V607.488z"/>
<path id="rect3111_2_" inkscape:export-xdpi="90" inkscape:export-ydpi="90" inkscape:export-filename="C:\myown\KeypadBuddy\gfx\rect3155.png" fill="#F9ED12" d="
	M255.295,131.089h99.519c10.969,0,19.86,7.479,19.86,16.705v46.329c0,9.226-8.892,16.705-19.86,16.705h-99.519
	c-10.967,0-19.858-7.479-19.858-16.705v-46.329C235.437,138.568,244.328,131.089,255.295,131.089z"/>
</svg>
